<svg xmlns="http://www.w3.org/2000/svg" viewBox="30 25 780 340" width="100%" height="100%">

    <g transform="translate(415, 100)" stroke="#3a3a3e" stroke-width="4" stroke-linecap="round" fill="none">
        <circle cx="0" cy="0" r="15" fill="none" stroke-width="4.5"/>

        <line x1="0" y1="-22" x2="0" y2="-62"/>
        <line x1="0" y1="22" x2="0" y2="62"/>
        <line x1="-22" y1="0" x2="-62" y2="0"/>
        <line x1="22" y1="0" x2="62" y2="0"/>

        <line x1="-15" y1="-15" x2="-45" y2="-45"/>
        <line x1="15" y1="-15" x2="45" y2="-45"/>
        <line x1="-15" y1="15" x2="-45" y2="45"/>
        <line x1="15" y1="15" x2="45" y2="45"/>

        <line x1="-7" y1="-20" x2="-18" y2="-52"/>
        <line x1="7" y1="-20" x2="18" y2="-52"/>
        <line x1="-7" y1="20" x2="-18" y2="52"/>
        <line x1="7" y1="20" x2="18" y2="52"/>
        <line x1="-20" y1="-7" x2="-52" y2="-18"/>
        <line x1="-20" y1="7" x2="-52" y2="18"/>
        <line x1="20" y1="-7" x2="52" y2="-18"/>
        <line x1="20" y1="7" x2="52" y2="18"/>

        <circle cx="0" cy="-80" r="3.5" fill="#3a3a3e" stroke="none"/>
        <circle cx="0" cy="80" r="3.5" fill="#3a3a3e" stroke="none"/>
        <circle cx="-85" cy="0" r="3.5" fill="#3a3a3e" stroke="none"/>
        <circle cx="85" cy="0" r="3.5" fill="#3a3a3e" stroke="none"/>
    </g>

    <g fill="#3a3a3e">
        <path d="M413 -92Q315 -92 233.5 -63.0Q152 -34 102.0 22.5Q52 79 47 162Q45 196 58.0 237.0Q71 278 94.5 318.5Q118 359 150.5 391.5Q183 424 220 441Q223 443 229.5 444.0Q236 445 239 445Q245 445 245 442Q245 437 230 426Q188 393 161 350Q133 307 119.0 258.0Q105 209 105 159Q105 100 130.5 57.5Q156 15 199.0 -12.5Q242 -40 297.0 -53.0Q352 -66 412 -66Q479 -66 544.5 -51.0Q610 -36 664 -8Q747 36 795.5 101.0Q844 166 844 230Q844 264 829.5 295.0Q815 326 783 351Q759 370 724.5 387.0Q690 404 651.5 420.0Q613 436 576.0 452.5Q539 469 511 488Q471 515 452.5 546.0Q434 577 434 608Q434 645 455.5 680.0Q477 715 514.5 743.5Q552 772 599 788Q640 802 688.5 810.0Q737 818 784 818Q823 818 858.5 812.5Q894 807 921 793Q955 777 973.0 750.5Q991 724 991 695Q991 655 955 625Q942 615 926.0 606.5Q910 598 888 592Q884 591 879 591Q867 591 867 598Q867 602 873.5 606.5Q880 611 893 612Q923 616 938.5 635.0Q954 654 954 679Q954 705 936.5 730.5Q919 756 883.0 773.5Q847 791 791 791Q759 791 720.5 784.0Q682 777 637 761Q582 742 545.5 705.0Q509 668 509 626Q509 600 526.5 573.5Q544 547 583 523Q616 503 658.0 483.5Q700 464 743.0 444.5Q786 425 821 403Q876 369 900.0 330.0Q924 291 924 250Q924 202 895.5 153.5Q867 105 821.0 62.5Q775 20 720 -13Q656 -51 575.5 -71.5Q495 -92 413 -92Z"
              transform="translate(66.35,285.00) scale(0.165000,-0.165000)"/>
        <path d="M266 528Q253 509 237.0 480.0Q221 451 207.5 424.0Q194 397 187 383H279Q279 379 275.5 370.0Q272 361 262 357H175Q163 330 147.5 292.0Q132 254 117.5 213.0Q103 172 93.5 136.5Q84 101 84 79Q84 49 92.0 34.5Q100 20 121 20Q148 20 173.0 46.5Q198 73 220.5 113.0Q243 153 260 193Q272 193 272 184Q261 157 245.0 125.0Q229 93 208.5 63.5Q188 34 162.5 15.5Q137 -3 106 -3Q64 -3 49.0 20.5Q34 44 34 81Q34 108 44.0 146.5Q54 185 68.5 226.0Q83 267 97.0 302.5Q111 338 119 357H55Q55 365 62.0 374.0Q69 383 77 383H130Q138 399 148.5 423.0Q159 447 177 476Q192 500 215.5 514.0Q239 528 266 528Z"
              transform="translate(219.14,285.00) scale(0.165000,-0.165000)"/>
        <path d="M-79 -319Q-131 -319 -153.0 -298.5Q-175 -278 -175 -250Q-175 -207 -143.5 -170.5Q-112 -134 -66 -112Q-14 -88 52.5 -73.0Q119 -58 180 -40Q199 -7 215.0 35.5Q231 78 244.0 118.5Q257 159 265 185Q253 163 234.5 131.5Q216 100 193.0 70.0Q170 40 143.5 20.0Q117 0 88 0Q77 0 61.5 5.0Q46 10 34.5 23.5Q23 37 23 64Q23 90 39.0 121.5Q55 153 71 184Q66 184 62.5 185.0Q59 186 59 193Q62 199 71.0 219.0Q80 239 91.5 263.0Q103 287 112 305Q123 328 136.5 337.0Q150 346 163 346H225Q218 340 207.5 332.5Q197 325 188 310Q161 264 141.0 221.5Q121 179 98 131Q87 108 82.0 89.0Q77 70 77 56Q77 23 99 23Q123 23 157 62Q185 95 213.5 140.5Q242 186 268.5 234.5Q295 283 315 324Q326 346 354 346H409Q380 326 364.5 294.0Q349 262 330 212Q309 157 290.0 98.0Q271 39 248 -23Q297 -6 330.0 21.0Q363 48 388.5 90.5Q414 133 440 193Q452 193 452 184Q430 138 412.0 103.0Q394 68 372.0 41.5Q350 15 317.0 -7.5Q284 -30 232 -51Q208 -94 177.5 -140.5Q147 -187 108.5 -227.5Q70 -268 23.5 -293.5Q-23 -319 -79 -319ZM-103 -299Q-70 -299 -35.0 -279.0Q0 -259 33.0 -228.5Q66 -198 93.5 -166.5Q121 -135 138 -111Q143 -104 149.0 -93.0Q155 -82 161 -72Q112 -85 53.5 -100.5Q-5 -116 -48 -135Q-96 -155 -123.5 -192.0Q-151 -229 -151 -258Q-151 -276 -139.5 -287.5Q-128 -299 -103 -299Z"
              transform="translate(252.31,285.00) scale(0.165000,-0.165000)"/>
        <path d="M106 -3Q69 -3 51.5 19.5Q34 42 34 73Q34 105 43.0 139.0Q52 173 59 196Q75 252 99.5 315.5Q124 379 153.5 440.5Q183 502 212 551Q235 590 261.5 609.5Q288 629 308 629Q324 629 333.5 617.5Q343 606 343 583Q343 567 337.5 545.0Q332 523 319 495Q284 417 235.5 339.0Q187 261 113 193Q101 165 93.0 133.0Q85 101 85 81Q85 19 127 19Q159 19 198.0 65.5Q237 112 272 193Q276 193 280.0 191.5Q284 190 284 184Q273 157 256.5 124.5Q240 92 218.5 63.0Q197 34 169.0 15.5Q141 -3 106 -3ZM121 225Q157 262 191.0 310.5Q225 359 254.5 411.5Q284 464 304 511Q311 526 315.5 544.0Q320 562 320 574Q320 588 313 588Q309 588 301.0 580.5Q293 573 280 555Q261 530 238.5 487.0Q216 444 193.0 395.0Q170 346 151.0 300.5Q132 255 121 225Z"
              transform="translate(315.17,285.00) scale(0.165000,-0.165000)"/>
        <path d="M131 -4Q94 -4 64.5 20.0Q35 44 35 93Q35 134 53.5 180.0Q72 226 102.5 266.5Q133 307 170.5 332.5Q208 358 246 358Q265 358 283.0 347.0Q301 336 301 309Q301 284 282.0 254.0Q263 224 228 198Q213 187 190.0 177.0Q167 167 144.0 160.5Q121 154 106 154Q101 142 96.5 122.0Q92 102 92 81Q92 56 102.0 36.0Q112 16 139 16Q172 16 200.5 35.0Q229 54 251.5 83.0Q274 112 290.0 142.0Q306 172 315 193Q327 193 327 184Q314 156 297.5 123.0Q281 90 258.5 61.5Q236 33 204.5 14.5Q173 -4 131 -4ZM113 172Q127 172 160.0 182.5Q193 193 220 216Q246 239 260.0 266.5Q274 294 274 313Q274 335 258 335Q246 335 225.0 319.0Q204 303 173 265Q154 241 137.0 213.0Q120 185 113 172Z"
              transform="translate(350.32,285.00) scale(0.165000,-0.165000)"/>
        <path d="M308 -173Q250 -173 193.5 -159.5Q137 -146 91.5 -115.0Q46 -84 19.0 -31.5Q-8 21 -8 99Q-8 155 11.0 204.0Q30 253 61.0 283.5Q92 314 127 314Q139 314 139 308Q139 302 126 298Q101 292 77.5 267.5Q54 243 39.0 203.0Q24 163 24 108Q24 42 48.5 0.0Q73 -42 112.0 -66.0Q151 -90 194.5 -99.5Q238 -109 277 -109Q387 -109 478.5 -74.5Q570 -40 643.5 21.0Q717 82 771.5 161.5Q826 241 862 332Q863 335 864 338Q848 337 837.0 335.0Q826 333 816 329Q794 321 783 321Q777 321 777 329Q777 343 791.5 358.5Q806 374 827 375Q835 375 849.5 375.5Q864 376 880 376Q899 424 921.0 475.0Q943 526 964.0 572.0Q985 618 1001.0 652.0Q1017 686 1024 700Q969 694 910.0 689.5Q851 685 794.0 675.5Q737 666 686 645Q592 606 549.5 542.5Q507 479 507 401Q507 352 534.0 320.0Q561 288 605 288Q645 288 675.0 312.5Q705 337 722.5 374.5Q740 412 740 449Q740 461 737.5 470.5Q735 480 733 484Q733 491 739 491Q752 491 756.5 472.5Q761 454 761 436Q761 396 739.5 357.0Q718 318 680.5 292.5Q643 267 596 267Q554 267 519.5 288.5Q485 310 464.0 347.0Q443 384 443 429Q443 493 472.0 542.5Q501 592 551.5 627.0Q602 662 665 680Q726 698 791.5 705.0Q857 712 920.5 715.5Q984 719 1037 724Q1047 742 1062.5 761.0Q1078 780 1097.0 793.5Q1116 807 1136 807Q1151 807 1162.0 799.5Q1173 792 1173 776Q1173 752 1154.5 736.5Q1136 721 1108.0 713.0Q1080 705 1053 701Q1042 680 1027.0 642.0Q1012 604 994.5 557.5Q977 511 959.5 463.5Q942 416 927 375Q961 373 1006.5 370.5Q1052 368 1100.0 365.5Q1148 363 1191.5 361.0Q1235 359 1263 359Q1274 387 1286 417Q1348 568 1400.0 655.0Q1452 742 1483 752Q1523 765 1538 765Q1544 765 1544 763Q1544 760 1530 753Q1523 749 1501.5 718.0Q1480 687 1450.0 633.5Q1420 580 1387.0 510.0Q1354 440 1324 358Q1341 358 1358.5 359.0Q1376 360 1385 361Q1396 363 1403.5 366.0Q1411 369 1415 369Q1420 369 1420 364Q1420 361 1412 354Q1395 342 1371.0 333.0Q1347 324 1311 322Q1288 256 1268.0 186.5Q1248 117 1248 58Q1248 36 1256.0 16.0Q1264 -4 1286 -4Q1312 -4 1343.0 24.5Q1374 53 1404.0 98.0Q1434 143 1454 193Q1466 193 1466 184Q1442 129 1409.5 77.0Q1377 25 1338.5 -8.5Q1300 -42 1258 -42Q1225 -42 1204.5 -18.0Q1184 6 1184 53Q1184 99 1202.5 170.0Q1221 241 1250 322Q1220 323 1176.0 325.0Q1132 327 1083.0 329.5Q1034 332 989.0 334.0Q944 336 914 337Q910 325 906.0 314.0Q902 303 899 294Q869 206 815.5 123.0Q762 40 687.5 -27.0Q613 -94 517.5 -133.5Q422 -173 308 -173ZM1072 726Q1082 728 1089.5 730.0Q1097 732 1104 734Q1122 740 1129.5 748.0Q1137 756 1137 762Q1137 774 1123 774Q1116 774 1106.0 768.0Q1096 762 1086 748Q1082 742 1078.5 736.5Q1075 731 1072 726Z"
              transform="translate(420.77,285.00) scale(0.165000,-0.165000)"/>
        <path d="M88 0Q77 0 61.5 5.0Q46 10 34.5 23.5Q23 37 23 64Q23 90 40.0 124.0Q57 158 70 184Q59 184 59 193Q60 196 68.0 212.0Q76 228 87.0 250.0Q98 272 108.5 292.5Q119 313 125 324Q137 346 163 346H225Q208 333 194.5 317.5Q181 302 161 261Q161 261 154.0 247.0Q147 233 136.5 211.5Q126 190 115.5 168.0Q105 146 98 131Q85 103 81.0 86.5Q77 70 77 56Q77 23 99 23Q123 23 157 62Q185 95 212.0 141.0Q239 187 263.5 236.0Q288 285 307 324Q318 346 346 346H401Q379 328 356.5 292.0Q334 256 307 200Q300 185 289.0 162.0Q278 139 269.5 113.0Q261 87 261 61Q261 26 286 26Q320 26 352.0 73.0Q384 120 415 193Q423 193 424.5 192.0Q426 191 427 184Q416 157 400.5 125.5Q385 94 365.5 65.0Q346 36 322.5 18.0Q299 0 271 0Q246 0 230.0 18.5Q214 37 214 71Q214 98 224 129Q207 99 185.0 69.0Q163 39 138.0 19.5Q113 0 88 0Z"
              transform="translate(650.95,285.00) scale(0.165000,-0.165000)"/>
        <path d="M120 -5Q79 -5 62.0 20.0Q45 45 45 81Q45 106 50.5 128.0Q56 150 67 178H65Q57 178 57 186Q57 190 65.5 209.0Q74 228 87.5 255.0Q101 282 115.5 310.0Q130 338 142 360Q162 397 186.0 436.5Q210 476 233.5 512.0Q257 548 273 571Q309 621 340 621H345Q354 621 365.5 618.0Q377 615 387 617Q372 601 341.5 559.5Q311 518 275 465Q260 443 237.5 406.0Q215 369 190.0 323.0Q165 277 143.5 229.5Q122 182 108.0 137.5Q94 93 94 58Q94 35 102.0 26.0Q110 17 122 17Q137 17 157.5 34.5Q178 52 199.5 80.5Q221 109 239.0 143.5Q257 178 268.5 213.5Q280 249 280 279Q280 308 269.5 321.0Q259 334 242 334Q235 334 228.0 330.5Q221 327 216 327Q211 327 211 332Q211 337 221.5 343.0Q232 349 253 349Q272 349 291.5 339.0Q311 329 324.0 306.5Q337 284 337 248Q337 205 317.0 160.5Q297 116 265.0 78.5Q233 41 194.5 18.0Q156 -5 120 -5Z"
              transform="translate(709.69,285.00) scale(0.165000,-0.165000)"/>
    </g>
</svg>
